<?xml version="1.0" standalone="no"?>
<!DOCTYPE svg PUBLIC "-//W3C//DTD SVG 1.1//EN" "http://www.w3.org/Graphics/SVG/1.1/DTD/svg11.dtd" >
<svg xmlns="http://www.w3.org/2000/svg" xmlns:xlink="http://www.w3.org/1999/xlink" version="1.1" viewBox="-10 0 270 256">
   <path fill="currentColor"
d="M178 199q8 -7 16 -3q3 4 16 8q6 0 15 4q4 10 -9 9q-17 -16 -47 -14q-58 0 -107 15q-7 2 -17 -2q-6 -4 0 -2q9 0 19 -3q64 -14 114 -12zM106 60q6 -3 13 1q1 1 2 1t3 -1q16 -9 21 -15q4 -4 1 -7q-2 -3 3 -3q2 1 5 2t6 1q1 1 1 3q0 1 -2 1q-2 2 -4 3q-3 2 -4 3
q-12 10 -30 16q0 1 -1 2l-3 3q-7 8 -23 34q-25 41 -65 75q-8 5 -2 -2q42 -40 80 -105q5 -9 0 -9q-2 0 -3 -1q0 -1 2 -2zM118 77q15 -11 29 11q25 45 53 66q5 6 14 6q15 1 29 7q2 1 5 1q2 2 2 4q-1 2 -3 1h-4q-16 -4 -29 -3q-6 1 -15 -8q-33 -29 -57 -74q-10 -14 -23 -10
q-6 3 -1 -1zM114 136q15 8 13 9v15q8 -3 11 -6q1 -3 8 -3q1 0 4 1t6 0q2 1 2 2t-2 2q-7 2 -15 6q-7 3 -15 5q-2 10 -3 23v6q-2 6 -5 3q-6 -9 -3 -18q2 -4 3 -12q-19 5 -28 1q-6 -1 0 -2q10 0 28 -6q2 -17 -6 -23q-3 -2 -2 -2q0 -1 4 -1zM147 -2q10 7 6 11q-14 24 -29 32
q-5 2 -1 -2q-13 0 -33 8q7 5 11 17q0 5 -4 3q-4 1 -5 -4q-2 -13 -8 -14q-3 0 -2 -2q0 -2 3 -3q22 -5 25 -12q1 -2 8 -1q0 1 3 2q3 0 6 1q9 -7 18 -24q3 -6 0 -12q-1 -2 2 0zM131 112q3 -4 10 -3q2 1 7 2q4 2 7 2q2 2 1 4q-1 1 -4 1q-10 0 -19 4q-14 6 -21 10q-7 2 -1 -2
l1 -2q0 -1 -1 -1q-15 2 -24 0q-3 0 -3 -1q1 -1 4 -2q13 0 30 -5q8 -2 13 -7zM180 18q2 -3 7 -2q1 2 6 3q5 2 7 2q2 1 2 4q-1 3 -3 2q-6 -1 -22 1q1 0 -1 0q-19 4 -23 4q-6 1 -11 -1q-4 -1 1 -2q17 -1 29 -5q7 -2 8 -6zM80 13q13 16 5 24q-11 18 -34 30q-4 1 -1 -1
q20 -14 29 -34q3 -7 -1 -18q-2 -3 2 -1z" />
</svg>
