<?xml version="1.0" standalone="no"?>
<!DOCTYPE svg PUBLIC "-//W3C//DTD SVG 1.1//EN" "http://www.w3.org/Graphics/SVG/1.1/DTD/svg11.dtd" >
<svg xmlns="http://www.w3.org/2000/svg" xmlns:xlink="http://www.w3.org/1999/xlink" version="1.1" viewBox="-10 0 266 256">
   <path fill="currentColor"
d="M82 65q-1 -2 0 -3h3q13 8 8 12q-3 7 -4 14q7 -1 11 -2q2 0 3 1q1 2 -1 3q-3 3 -12 5q3 8 1 9q-2 3 -4 7q-9 74 0 100q0 3 -3 5q-3 1 -4 -2q-9 -10 -13 -28q-2 -4 0 -5q1 -1 4 3q3 6 5 6q1 1 2 -3q-1 -41 3 -67q-31 48 -53 52q-8 3 -2 -2q25 -15 55 -65v-4q1 -1 1 -2
q-32 11 -45 22q-8 5 -12 -4q1 -8 7 -9q5 2 7 -2q4 -3 7 -12q0 1 1 -2q1 -4 2 0l2 10q-1 3 4 1q11 -5 27 -11q1 -16 0 -27zM167 29q-2 -2 -2 -3q1 -1 4 -1q9 1 21 9q6 6 1 11t-11 0q-4 -4 -9 -10q-3 -4 -4 -6zM99 35q11 0 16 1q2 1 3 3q-1 3 -3 3q-17 2 -37 10q-7 2 -18 1
q-8 0 -11 -2q-3 -1 -3 -2t3 -1q7 1 23 -2q6 -1 9 -2q9 -2 10 -5q2 -4 8 -4zM161 -8q7 6 2 11q-12 18 -23 32q9 0 6 8q-1 2 -1 4q-5 21 -5 35q19 -4 48 -17q4 -1 5 -6q0 -3 7 -2q3 0 16 4q-11 -3 4 1q3 4 -1 6q-12 -1 -22 1q-11 2 -32 11q-11 6 -25 3q-2 16 -2 38q0 21 1 41
q2 2 10 -1q2 -1 27 -6q-3 -2 -3 -16q-11 3 -22 3q-2 0 -2 -1t2 -2q1 0 5 -1q12 -3 18 -6q0 -2 -1 -8q-1 -4 0 -6q-2 1 -21 3q-2 0 -3 -1q0 -1 2 -2q5 -3 22 -8q-2 -18 -7 -22q-2 -1 -2 -2q1 -1 3 -1q2 1 5 1q5 0 7 1q8 5 5 8q-2 4 -1 11q6 -2 18 -1q2 1 2 3q-1 2 -3 2
q-1 1 -2 1q-4 0 -15 4v15q9 -2 13 0q2 3 -1 4q-6 2 -12 3q0 12 -4 18h3l20 -2q-1 -1 8 -4q4 -1 23 14q5 6 -1 8q-7 3 -14 -6q-7 -8 -17 -7q-31 1 -52 8q-2 1 -5 1q-4 1 -5 1q0 16 1 30q0 4 1 5q-1 5 4 9q6 4 14 18q3 5 -3 8q-7 2 -11 -5q-9 -16 -15 -20q-10 -9 2 -15
q4 0 4 -9q-5 -116 1 -130q2 -14 -3 -15q-10 12 -18 18q-7 5 -2 -2q1 -2 4 -7q21 -30 32 -46q6 -9 6 -14q0 -3 1 -3t4 2z" />
</svg>
