<?xml version="1.0" encoding="utf-8"?>
<!-- Generator: Adobe Illustrator 16.0.0, SVG Export Plug-In . SVG Version: 6.00 Build 0)  -->
<!DOCTYPE svg PUBLIC "-//W3C//DTD SVG 1.1//EN" "http://www.w3.org/Graphics/SVG/1.1/DTD/svg11.dtd">
<svg version="1.1" id="chuan" xmlns="http://www.w3.org/2000/svg" xmlns:xlink="http://www.w3.org/1999/xlink" x="0px" y="0px"
	viewBox="0 0 841.89 595.281"
	 xml:space="preserve">
<path class="pen line-chuan-1" d="M300.778,28.474c5.006,2.357,8.963,10.51,10.926,15.074
	c2.596,6.039,3.141,12.471,3.408,18.934c0.239,5.783-2.535,11.363-4.576,16.643c-2.616,6.767-6.396,12.732-9.838,18.692
	c-4.029,6.976-3.615,6.848-9.086,12.991c-2.298,2.581-10.98,11.218-13.49,13.832c-2.704,2.815-1.486,1.501-3.989,4.157
	c-0.301,0.08-4.353,3.25-4.632,3.399c-0.037,0.185-0.831,0.447-0.868,0.632c-3.61,2.352-4.835,3.229-7.188,4.731
	c-3.195,2.041-5.962,3.828-9.25,5.924c-5.885,3.753-13.633,7.063-18.75,11.657"/>
<path class="pen line-chuan-2" d="M300.445,113.807c3.335-0.294,6.143-1.884,9.326-3.001c3.239-1.137,6.703-2,10-2.983
	c7.254-2.164,13.596-3.708,21.425-6.267c15.415-5.039,28.875-9.884,46-16.424c5.569-2.127,10.996-4.688,16.583-6.659"/>
<path class="pen line-chuan-3" d="M320.778,107.807c3.439,0.463,9.511,6.303,11.25,9c2.34,3.629,4.585,7.807,6.75,11.833
	c4.016,7.469,8.632,17.967,9,26.833"/>
<path class="pen line-chuan-4" d="M470.779,2.14c0.197,5.414-1.244,11.539-3.5,16.5c-2.944,6.476-7.57,13.707-7.99,14.466
	c-3.878,7.005-7.405,12.155-11.51,17.034c-5.107,6.07-6.444,8.379-11,13.167c-10.264,10.786-18.859,19.063-29.334,29.167"/>
<path class="pen line-chuan-5" d="M447.779,69.14c6.911-0.248,13.444,1.301,20.391,1c6.784-0.293,15.364-1.53,21.9-3.25
	c15.468-4.07,24.593-6.337,38.691-10.091c9.698-2.582,21.151-2.909,31.309-2.909c5.584,0,10.625,0,16.06,0.917
	c4.198,0.708,8.262,2.109,11.982,4"/>
<path class="pen line-chuan-6" d="M480.112,88.474c-0.128,1.488-0.487,1.977-1.001,3.319
	c-0.186,0.037-2.139,3.761-2.324,3.798c-4.175,4.299-5.901,6.383-8.343,8.956c-3.766,3.968-7.39,6.611-11.267,10.343
	c-7.424,7.147-15.43,14.702-24.407,19.575c-7.234,3.927-11.825,5.592-18.158,9.009"/>
<path class="pen line-chuan-7" d="M384.945,147.14c-0.954,4.499-3.406,10.115-5.167,14.333
	c-1.625,3.895-4.659,9.364-6.333,12.5c-3.917,7.333-5.305,9.839-8.986,16.667c-4.083,7.573-8.044,13.924-12.735,21.363
	c-4.284,6.793-9.725,16.186-14.379,22.87c-10.113,14.523-19.9,29.601-28.9,41.018c-4.88,6.191-8,12.25-14.25,20.75
	c-5.84,7.942-13.25,15-19.75,22.5c-6.247,7.207-9.183,11.574-14.917,18.583c-5.25,6.417-10.333,12.5-16.667,18.833
	c-5.167,4.834-8.75,8.834-12.333,13.669c-1.147,1.388-4.669,4.415-5.833,5.832c-2.917,2.583-15.662,14.679-22.139,22.095
	c-3.468,3.97-7.344,7.952-11.711,10.988c-4.223,2.936-9.191,8.103-13.9,10.5"/>
<path class="pen line-chuan-8" d="M395.945,180.64c6.912-4.849,16.19-7.359,25.611-6.5
	c11.096,1.012,20.118,8.228,26.387,17.137c6.42,9.125,13.744,22.579,19.252,31.863c5.552,9.358,10.459,15.59,15.887,25.002
	c10.379,17.998,20.809,34.784,34.378,49.984c13.266,14.86,29.964,39.709,44.985,51.764c16.742,13.436,28.809,27.438,50,34.25
	c11.642,3.743,28.455,3.167,40.5,5.25c11.818,2.044,28.849,5.072,40.405,7.714"/>
<path class="pen line-chuan-9" d="M321.945,293.14c20.875-0.066,42.82,0.058,62.974-3.998
	c12.483-2.513,24.749-6.62,37.401-9.402c11.791-2.592,23.576-4.471,34.849-8.725c4.984-1.881,10.356-3.212,15.276-4.875"/>
<path class="pen line-chuan-10" d="M324.945,393.14c10.107,0.212,20.483-1.5,30.913-1.5c9.115,0,20.422-2.523,29.087-4.833
	c12.5-3.332,50.333-16,61.833-20c3.279-1.141,23.655-6.477,37.167-11.167"/>
<path class="pen line-chuan-11" d="M384.072,316.254c7.625,8.125,13.953,20.259,16.706,27.553
	c1.793,4.75,2.339,17.093,1.833,26.333c-0.553,10.089-1.167,19.224-2.667,28.75c-1.841,11.691-2.866,23.486-4,35
	c-0.994,10.087-0.954,19.79,3,28.583"/>
<path class="pen line-chuan-12" d="M228.445,503.14c5.462,0.533,13.414-0.127,18.833-1c4.797-0.772,12.675-1.657,17.5-2.5
	c9.661-1.688,18.484-4.534,28.358-7.249c9.573-2.633,21.395-5.019,26.642-5.751c9.815-1.37,39.62-5.936,49.085-7.687
	c19.908-3.684,26.657-3.914,49.931-7.341c16.827-2.478,33.319-3.237,54.248-3.473c12.329-0.139,23.902-0.625,35.928-0.975
	c11.547-0.336,24.225,0.35,32.951,0.963c10.795,0.759,22.721,1.922,33.19,4.013c10.963,2.188,21.473,4.894,31.833,7.666
	c8.162,2.184,21.167,7.584,28.417,10.334"/>
</svg>
