<?xml version="1.0" encoding="utf-8"?>
<!-- Generator: Adobe Illustrator 16.0.0, SVG Export Plug-In . SVG Version: 6.00 Build 0)  -->
<!DOCTYPE svg PUBLIC "-//W3C//DTD SVG 1.1//EN" "http://www.w3.org/Graphics/SVG/1.1/DTD/svg11.dtd">
<svg version="1.1" id="圖層_1" xmlns="http://www.w3.org/2000/svg" xmlns:xlink="http://www.w3.org/1999/xlink" x="0px" y="0px"
	 width="841.89px" height="595.281px" viewBox="0 0 841.89 595.281" enable-background="new 0 0 841.89 595.281"
	 xml:space="preserve">
<path class="pen line-hsu-2" d="M315.607,123.242c1.55,0,3.101,0.775,4.651,2.325c0,1.55-0.775,3.101-2.326,4.651
	c-6.201,6.201-5.426,7.751,2.326,4.65c6.201-4.65,13.952-8.526,23.253-11.626c10.852-1.55,23.253-4.651,37.205-9.301h2.325
	c3.101-1.55,4.651-3.101,4.651-4.651c1.55-1.55,0.775-3.1-2.326-4.65c-12.401-3.101-22.478-3.875-30.229-2.325
	c-6.201,1.55-10.076,3.1-11.626,4.65c0,1.55-6.201,3.875-18.603,6.976h-9.301c-52.707,13.952-99.213,24.028-139.519,30.229
	c-4.651,1.55-8.526,2.325-11.627,2.325c-4.65,1.55-4.65,3.101,0,4.651c29.454,3.1,47.282,2.325,53.482-2.325
	c18.603-4.651,39.53-10.077,62.784-16.277C293.129,129.442,304.755,126.342,315.607,123.242z"/>
<path class="pen line-hsu-5" d="M350.487,334.845c-7.751-1.551-15.502-2.326-23.253-2.326c-6.201,0-9.301,2.326-9.301,6.977
	c-21.703,7.752-39.53,14.727-53.482,20.928c-6.201-7.75-8.526-9.301-6.976-4.65c7.751,31.004,8.526,48.057,2.325,51.156
	c-4.65,3.102-4.65,6.201,0,9.303c6.201,6.199,13.177,12.4,20.928,18.602c4.65,4.65,8.526,4.65,11.626,0c1.55,0,1.55-2.324,0-6.977
	c-6.201-6.199-10.077-13.951-11.626-23.252c0.069-0.008,0.133-0.016,0.202-0.023c-0.777-0.889-1.44-1.817-1.988-2.775
	c-0.209,0.169-0.396,0.33-0.539,0.473c-3.1-6.201-5.426-12.4-6.976-18.602c-3.1-7.752-4.65-13.953-4.65-18.604
	c9.301-1.549,24.028-6.201,44.181-13.951c4.65-1.551,7.751-1.551,9.301,0v6.977c-1.694,10.162-5.024,18.22-9.958,24.217
	c0.05,0.273,0.11,0.54,0.146,0.824c-0.036-0.284-0.095-0.551-0.146-0.824c-0.525,0.638-1.063,1.26-1.624,1.851
	c6.788-0.121,13.021-2.167,19.04-4.811c-0.171-0.1-0.347-0.194-0.482-0.329c7.751-18.604,15.502-29.455,23.253-32.555
	c3.1-1.551,4.65-3.877,4.65-6.977L350.487,334.845z"/>
<path class="pen line-hsu-6" d="M364.438,374.375c-10.852,0-19.377,0.775-25.578,2.326c-5.66,2.829-9.36,3.699-11.145,2.655
	c-6.019,2.644-12.252,4.689-19.04,4.811c-3.821,4.022-8.477,6.972-13.996,8.812c-8.444,4.222-13.682,7.162-15.738,8.828
	c0.548,0.958,1.211,1.887,1.988,2.775c13.837-1.551,23.074-3.867,27.702-6.953c13.952-4.65,29.454-7.75,46.506-9.301h2.326
	l6.976-6.977C365.989,378.251,365.989,375.925,364.438,374.375z"/>
<path class="pen line-hsu-1" d="M338.86,46.506c4.65,3.1,10.076,3.1,16.277,0c3.101-1.55,5.426-3.101,6.976-4.651c0-3.1-0.775-6.201-2.325-9.301
	c-10.852-6.201-29.454-13.177-55.808-20.928c-3.101,1.55-3.101,3.101,0,4.651c1.55,3.1,4.65,5.426,9.301,6.976
	c3.1,3.101,6.201,5.426,9.301,6.976c7.751,6.201,10.852,10.077,9.301,11.626C330.334,43.406,332.659,44.956,338.86,46.506z"/>
<path class="pen line-hsu-3" d="M301.655,213.929c1.55,0,4.65-0.775,9.301-2.325c7.751-3.101,14.727-6.201,20.928-9.301
	c6.201-1.55,6.976-6.201,2.325-13.952c-3.101-1.55-6.201-1.55-9.301,0c-15.502,4.65-24.803,6.976-27.904,6.976
	c-1.55,1.55-3.1,2.326-4.65,2.326c0,1.55-0.775,2.325-2.326,2.325c-4.65,6.201-15.502,11.626-32.554,16.277
	c-4.65,3.101-4.65,4.651,0,4.651c9.301,0,17.828-1.55,25.579-4.651c4.65-1.55,6.976-1.55,6.976,0
	C288.479,220.905,292.354,220.13,301.655,213.929z"/>
<path class="pen line-hsu-4" d="M278.402,288.339h2.326c0,1.55-0.775,3.875-2.326,6.976c0,3.101,2.326,3.101,6.976,0
	c1.55-1.55,5.426-3.875,11.626-6.976s12.402-7.751,18.603-13.952c4.651-6.201,9.301-10.077,13.952-11.627
	c1.55-1.55,2.325-3.1,2.325-4.65s-1.55-3.101-4.651-4.651c-7.751-4.65-16.277-2.325-25.578,6.976
	c-18.603,13.952-34.105,22.478-46.506,25.579c-4.651,1.55-5.426,3.1-2.325,4.65C260.575,292.214,269.101,291.439,278.402,288.339z"
	/>
<path class="pen line-hsu-7" d="M417.921,148.82c10.852-23.253,22.477-48.057,34.879-74.41c4.65-9.301,3.875-14.727-2.324-16.277
	c-7.752-3.101-14.729-8.526-20.93-16.277c-6.199-3.1-7.75-1.55-4.65,4.651c10.852,34.104-9.3,93.012-60.458,176.724
	c-4.65,7.751-3.875,8.526,2.325,2.326c15.056-19.573,30.112-42.079,45.167-67.5c-0.16,0.049-0.322,0.084-0.486,0.084
	c0.309-0.232,0.595-0.479,0.87-0.733c0.318-0.539,0.637-1.07,0.955-1.611c0.144,0.036,0.294,0.063,0.439,0.098
	c1.78-2.252,2.864-4.914,4.372-7.087C418.029,148.811,417.973,148.816,417.921,148.82z"/>
<path class="pen line-hsu-8" d="M476.133,146.549c-0.026-0.019-0.053-0.036-0.079-0.055c55.807-15.502,95.338-23.253,118.59-23.253
	c4.65,0,7.752-0.775,9.303-2.325c0-3.101-1.551-5.426-4.652-6.976c-23.252-6.201-36.43-10.852-39.529-13.952
	c-7.752-3.1-13.178-0.775-16.277,6.976c-1.551,6.201-7.752,10.852-18.604,13.952c-4.65,1.55-10.852,3.875-18.602,6.976
	c-37.115,12.372-66.514,19.342-88.202,20.915c-1.507,2.173-2.591,4.834-4.372,7.087c12.347,2.958,28.473,1.381,48.392-4.748
	c3.102,0,6.201-0.775,9.303-2.325c0.032,0.06,0.063,0.124,0.096,0.184C472.332,146.762,474.35,146.891,476.133,146.549z"/>
<path class="pen line-hsu-10" d="M692.308,253.459c-12.402-9.301-27.129-17.052-44.182-23.253c-10.852,0-20.152-3.101-27.904-9.301
	c-10.852-6.201-20.152-2.325-27.902,11.626c-15.502,0-40.307,2.325-74.41,6.976c-9.301,1.55-17.053,2.325-23.254,2.325
	c0-0.187,0.001-0.364,0.002-0.55c-3.873,0.223-7.746,0.519-11.619,2.549c-0.004,0.109-0.006,0.216-0.01,0.326
	c-7.75,3.101-18.602,6.201-32.553,9.301c-41.856,9.301-71.311,15.502-88.363,18.603c-3.101,1.55-6.976,2.326-11.626,2.326
	c-7.751,1.55-14.727,2.325-20.928,2.325c-4.651,1.55-4.651,2.325,0,2.325c20.152,4.651,37.98,4.651,53.482,0
	c46.505-12.402,79.835-20.928,99.988-25.579v0.264c3.895-2.702,7.788-1.388,11.683-0.274c15.483-3.095,30.967-5.417,46.45-6.965
	c17.053-1.55,31.006-3.101,41.855-4.651c34.105-4.65,65.109,3.101,93.014,23.253c4.65,3.1,9.301,3.1,13.951,0
	C694.632,261.985,695.408,258.11,692.308,253.459z"/>
<path class="pen line-hsu-9" d="M494.663,239.286c0.068-17.257,0.841-29.593,2.319-36.983c3.1-7.751,6.975-15.502,11.627-23.253
	c4.65-4.651,4.65-9.301,0-13.952c-10.825-4.639-21.65-10.823-32.476-18.548c-1.783,0.341-3.802,0.212-4.634,2.455
	c9.086,16.828,12.948,47.831,11.594,92.996c2.016,4.325,1.842,9.404-0.064,13.611v102.488c1.551,49.605,2.326,86.811,2.326,111.613
	c-0.031-0.006-0.059-0.009-0.089-0.015c3.371,4.688,5.971,10.126,8.842,15.204c-1.962-4.679-2.556-8.967-1.776-12.863V358.099
	c1.546-49.527,2.321-84.373,2.324-104.541C492.753,249.112,492.596,243.953,494.663,239.286z"/>
</svg>
