<?xml version="1.0" encoding="utf-8"?>
<!-- Generator: Adobe Illustrator 16.0.0, SVG Export Plug-In . SVG Version: 6.00 Build 0)  -->
<!DOCTYPE svg PUBLIC "-//W3C//DTD SVG 1.1//EN" "http://www.w3.org/Graphics/SVG/1.1/DTD/svg11.dtd">
<svg version="1.1" id="hsu" xmlns="http://www.w3.org/2000/svg" xmlns:xlink="http://www.w3.org/1999/xlink" x="0px" y="0px"
	viewBox="0 0 841.89 595.281"
	 xml:space="preserve">

<path class="pen line-hsu-1" d="M301.278,12.307
	c8.203,3.004,23.951,10.529,32.222,14.015c4.718,1.988,9.45,4.736,11.894,9.574c2.401,4.754,0.464,8.621-2.949,11.994"/>

<path class="pen line-hsu-2" d="M160.986,148.752
	c1.136-1.479,20.125-0.813,27.792-1.112c5.296-0.207,15.356-1.485,20.388-3.194c9.605-3.263,19.678-5.31,29.586-7.355
	c8.769-1.811,18.497-1.896,26.968-4.7c4.872-1.613,9.348-2.602,14.393-3.501c8.563-1.526,17.716-4.005,25.769-6.982
	c3.028-1.12,11.182-2.655,14.563-3.184c2.648-0.415,10.608-2.064,13.25-2.333c1.374-0.14,19.367-4.792,21.583-4.917
	c2.598-0.4,19.42-3.646,19.583-3.583c0.72,3.991-47.218,19.131-50.414,20.5c-5.253,2.25-7.735,4.921-10.585,7.639"/>

<path class="pen line-hsu-3" d="M255.445,218.14c14.313,0,27.552-5.662,40.194-11.806
	c5.729-2.784,11.478-4.544,17.368-6.64c3.347-1.191,6.271-2.49,9.688-3.348c2.63-0.661,5.063-1.042,7.762-1.444
	c1.726-0.256,3.625-1.284,5.487-1.013"/>

<path class="pen line-hsu-4" d="M252.311,290.386
	c4.637-1.249,14.239-4.086,19.073-4.934c5.712-1.002,10.242-3.103,15.304-5.859c7.264-3.955,16.401-5.979,22.469-11.576
	c-5.966,4.115,20.402-11.944,18.164-10.751"/>

<path class="pen line-hsu-5" d="M258.033,353.434
	c0.916,3.262,5.431,15.973,6.074,19.248c0.695,3.542,1.196,7.257,2.143,10.746c1.119,4.126,1.142,8.373,1.907,12.546
	c0.744,4.059,1.533,7.875,2.667,11.824c0.996,3.47,1.985,6.553,3.625,9.713c1.489,2.871,15.926,14.688,18.999,16.322"/>

<path class="pen line-hsu-6" d="M261.241,363.26c0.071-0.039,8.149-2.159,9.033-2.652
	c1.67-0.932,3.292-1.759,5.171-2.431c3.512-1.257,10.565-3.462,14.125-4.743c6.375-2.294,6.244-2.271,10.125-3.544
	c3.775-1.237,9.231-2.554,12.572-3.768c6.611-2.403,8.563-2.304,15.182-4.148c2.204-0.614,11.705-3.554,13.121-1.257
	c1.779,2.886-3.811,8.349-5.921,11.248c-1.618,2.224-3.61,6.261-4.961,8.688c-1.028,1.848-1.356,2.05-2.5,3.856
	c-0.828,1.308-3.979,7.317-4.792,8.642c-3.405,5.541-7.341,13.703-11.995,18.386"/>

<path class="pen line-hsu-7" d="M279.445,403.515c3.996,0.002,11.899-4.22,15.525-5.592c3.248-1.229,6.138-3.329,9.6-4.289
	c4.36-1.209,7.683-2.853,11.588-5.062c1.795-1.016,5.278-2.304,7.287-2.77c2.628-0.609,4.837-1.257,7.375-2.413
	c3.796-1.729,5.429-1.063,9.499-1.421c2.479-0.219,8.007-1.481,10.501-1.704c4.141-0.371,10.361-1.227,14.525-1.227"/>

<path class="pen line-hsu-8" d="M444.445,52.89c-0.61,4.465-1.729,8.76-2.563,13.18c-0.884,4.689-1.322,9.983-2.674,14.633
	c-2.938,10.112-6.008,19.901-9.813,29.313c-3.534,8.743-8.116,16.982-11.456,25.868c-2.932,7.802-7.346,15.95-11.675,23.074
	c-2.371,3.902-4.299,7.908-6.881,11.876c-1.846,2.836-6.125,6.82-6.724,10.013c-2.33,0.989-3.441,7.717-4.506,9.75
	c-3.091,1.71-4.404,6.678-6.277,9.535c-1.966,3-4.279,5.174-6.362,7.765c-2.188,2.722-4.264,5.144-5.867,7.944
	c-0.88,1.537-1.308,3.207-2.001,4.78c-0.887,2.011-2.606,3.633-3.243,5.736c-0.662,0.015-0.582-0.405-0.708-0.968"/>

<path class="pen line-hsu-9" d="M415.695,150.39c4.943,0.659,9.913,2,15.063,2c5.46,0,10.391-1.76,15.676-2.243
	c5.643-0.515,11.008-1.44,16.462-2.952c5.644-1.564,10.584-3.517,15.995-5.374c4.592-1.575,9.155-2.369,13.775-3.863
	c4.616-1.493,9.754-2.122,14.522-3.552c5.315-1.594,10.748-2.982,16.238-3.781c4.586-0.667,8.581-2.364,13.019-3.492
	c3.82-0.971,8.985-2.586,12.625-3.744c5.5-1.75,6.938-2.313,14-4.625c4.668-1.528,8.648-3.064,13.875-2.563
	c4.418,0.423,9.528,0.821,13.875,1.5c4,0.625,7.538-0.647,9.438-0.375"/>

<path class="pen line-hsu-10" d="M326.778,278.474c8.318,0,16.701,1.165,25,1.167c5.517,0.001,10.304-2.908,15.87-3.167
	c5.134-0.238,10.264-1.698,15.296-2.658c4.702-0.896,8.949-3.266,13.663-3.972c4.822-0.722,9.155-1.089,13.694-3.24
	c4.963-2.352,9.335-2.624,14.717-3.168c2.848-0.288,5.243-1.327,7.966-2.088c2.566-0.717,5.223-1.163,7.806-1.87
	c5.711-1.563,11.636-1.506,17.283-3.345c2.062-0.671,4.367-0.895,6.492-1.614c3.524-1.192,6.622-3.237,10.175-4.083
	c6.5-1.546,9.704-1.963,14.821-3.296c2.392-0.623,4.854-0.377,7.199-1.158c3.926-1.307,9.563-1.007,13.767-1.009
	c4.906-0.001,7.767-0.667,12.704-0.667c5.092,0,9.89-1.203,14.833-2.004c2.675-0.434,5.439-0.131,8.135-0.617
	c3.323-0.599,9.223-1.362,12.495-1.608c5.813-0.438,8.105-0.473,13.188-0.938c6.409-0.586,9.326-0.758,14.759-1.337
	c6.221-0.663,11.141-0.304,16.137-0.997c4.256-0.59,10.458-0.481,14.75,0.083c5.053,0.665,9.714,1.999,13.584,2.5"/>
	
<path class="pen line-hsu-11" d="M472.132,147.015c9,5.813,12.664,16.89,15.188,23.563c4.625,12.229,2.578,13.377,2.578,22.322
	c0,17.581-0.333,36.477-0.336,54.241c-0.001,8.561,0.312,30.936-0.117,39.5c-0.408,8.153-0.385,16.256-0.375,24.25
	c0.021,17.576-0.625,34.029-0.625,51.25c0,17.411-0.333,23.071-0.333,40.496c0,17.167-0.109,43.166,0.25,58.755
	c0.093,4.01,1.083,14.083,1.416,18"/>
</svg>
