<?xml version="1.0" encoding="utf-8"?>
<!-- Generator: Adobe Illustrator 16.0.0, SVG Export Plug-In . SVG Version: 6.00 Build 0)  -->
<!DOCTYPE svg PUBLIC "-//W3C//DTD SVG 1.1//EN" "http://www.w3.org/Graphics/SVG/1.1/DTD/svg11.dtd">
<svg version="1.1" id="ya" xmlns="http://www.w3.org/2000/svg" xmlns:xlink="http://www.w3.org/1999/xlink" x="0px" y="0px"
	viewBox="0 0 841.89 595.281" 
	 xml:space="preserve">
<path class="pen line-ya-1" d="M237.945,118.14
	c5.552,0.899,10.408,1.751,16.2,1.75c5.27-0.001,10.283-1.307,15.494-1.5c6.007-0.223,11.687,0.088,17.574-1.008
	c6.773-1.262,13.416-3.431,20.056-5.749c5.836-2.037,12.146-3.24,18.17-4.805c7.204-1.871,13.084-5.359,19.763-8.321
	c6.889-3.054,13.054-2.944,22.91-5.368c6.32-1.554,10.055-1.5,16.667-1.5c2.465,0,8.939-0.342,11.333,0"/>
<path class="pen line-ya-2" d="M236.778,208.974c0.63,0.771,0.5,3.095,0.663,4.167
	c0.295,1.95,0.124,3.693-0.296,5.633c-0.767,3.544-1.467,6.978-3.167,10.2c-2.4,4.551-4.537,8.623-7.783,12.667
	c-2.37,2.953-5.553,6.487-7.913,9.408c-2.867,3.549-5.783,7.074-9.154,10.038c-3.274,2.879-6.092,6.999-9.868,9.115
	c5.61-0.924,11.79-2.236,16.684-5.061c5.799-3.347,9.668-5.923,14.25-8.583c8-4.646,9.533-6.287,18.125-9.542
	c2.783-1.054,11.294-5.373,14.75-6.844c2.73-1.162,5.238-2.55,7.25-3.406c4.844-2.063,6.743-2.559,11.463-4.283
	c6.412-2.342,9.584-3.579,14.662-4.967c4.096-1.12,7.713-2.767,11.821-3.912c4.799-1.338,9.951-2.284,14.513-3.963
	c6.792-2.5,12.263-3.159,16.292-5.125c3.788-1.849,7.647-2.918,11.75-4.25c6.17-2.002,10.238-3.337,14.286-4.215
	c2.589-0.562,12.023-4.265,14.714-4.66"/>
<path class="pen line-ya-3" d="M331.901,150.412
	c-1.602,16.369-7.967,63.642-9.123,80.395c-0.636,9.217-1.769,19.923-2.633,29.003c-1.005,10.552-2.252,21.183-3.45,29.83
	c-2.349,16.949-2.963,33.207-3.25,52c-0.366,24.018-0.741,32.352-0.5,49.5c0.267,18.996-1.319,47.457-0.481,64.333
	c0.385,7.747,3.958,26.781,0.647,33.834c-1.917,4.083-22.241-33.406-24.917-48.667"/>
<path class="pen line-ya-4" d="M322.778,246.14
	c-4.111,4.839-6.483,11.502-9.648,16.667c-3.379,5.515-6.828,10.641-10.667,15.742c-9.354,12.432-14.436,20.999-26.019,35.591
	c-4.557,5.741-8.927,11.523-13,17.25c-3.803,5.347-13.24,16.369-17.326,21.484c-10.172,12.731-16.856,18.514-31.407,26.516
	c-7.423,4.082-13.907,8.433-21.298,12.666c-6.462,3.701-14.19,12.521-21.969,13.084"/>
<path class="pen line-ya-5" d="M500.112-17.86
	c-1.787,9.371-8.104,19.755-12.131,28.518c-4.304,9.365-8.93,19.956-15.388,27.966c-6.448,8-13.473,14.781-18.667,23.331
	c-5.531,9.105-11.256,18.667-17.78,26.703c-10.256,12.635-20.731,26.745-31.55,38.683c-9.792,10.804-21.107,25.425-33.817,30.799"/>
<path class="pen line-ya-6" d="M443.112,87.474c3.765,20.407,1.138,2.658,3.358,18.215c0.641,4.488,2.126,17.806,1.396,22.673
	c-0.555,3.693-0.672,14.866-1.188,18.527c-1.213,8.588-1.695,19.751-2.565,24.918c-0.687,4.076-0.446,15.756-1,19.667
	c-1.244,8.785-1.626,14.521-1.167,23.678c0.494,9.852,0.009,19.48-0.505,29.488c-0.95,18.519,0.005,35.662,0.005,54
	c0,17.029-0.196,35.76,2.025,52.5c2.206,16.61,0.431,33.256,0.475,50c0.046,17.451,2.5,33.638,2.5,51.126
	c0,16.812-1.685,35.172,2.5,50.874"/>
<path class="pen line-ya-7" d="M508.779,59.807c5.313,0.847,10.302,4.262,14.424,7.574c3.799,3.052,8.018,5.049,11.233,8.501
	c3.549,3.809,7.055,7.683,10.602,11.314c3.197,3.273,7.305,8.196,11.026,10.666c0.128,0.308-0.042,0.585,0.104,0.889
	c3.578,2.208,5.73,5.339,8.943,8.057"/>
<path class="pen line-ya-8" d="M456.445,192.14c9.896,0,20.417,1.893,29.488-1.597c8.594-3.305,17.737-6.159,26.039-10.393
	c15.252-7.779,32.551-14.403,49.336-20.022c11.685-3.912,21.833-10.534,33.662-13.487c11.147-2.783,23.406-3,35.475-3"/>
<path class="pen line-ya-9" d="M472.112,278.14c2.948,0.157,5.304-0.797,8.166-1.5c3.59-0.881,7.569-1.707,11.252-2.492
	c9.195-1.96,16.019-4.747,22.415-6.174c9.713-2.167,15.605-4.279,23.847-6.175c8.653-1.991,16.027-3.519,23.32-5.158
	c3.211-0.722,6.597-1.56,9.833-2.167c3.376-0.633,10.13-2.681,13.5-3.5c5.705-1.387,7.559-1.554,13-3.833"/>
<path class="pen line-ya-10" d="M471.779,328.14c5.741-2.36,12.689-3.317,18.982-3.667c7.072-0.394,13.047-1.894,19.684-3.592
	c6.403-1.639,12.96-3.153,19.334-5.158c4.132-1.3,7.845-1.437,12.008-2.916c5.158-1.833,8.138-2.131,12.158-3.167
	c5.229-1.347,10.008-1.955,15.229-3.249c3.757-0.931,9.063-0.426,12.271-1.918"/>
<path class="pen line-ya-11" d="M509.112,197.807c5.092-0.535,11.679,4.092,15.439,6.833c4.391,3.202,6.642,4.919,9.302,10.418
	c2.559,5.291,3.888,10.892,4.759,16.749c0.875,5.88,1.39,11.081,1.093,17.399c-0.306,6.496,0.706,12.478,0.073,18.767
	c-0.601,5.969-0.669,10.577-0.334,16.167c0.37,6.177,0.437,12.856,0.076,19.019c-0.408,6.981-0.299,11.692-0.908,17.981
	c-1.23,12.704-0.204,25.325-0.167,38.333"/>
<path class="pen line-ya-12" d="M448.195,385.39c5.878-1.262,11.406-1.047,17.277-2.86c6.818-2.105,13.487-4.779,20.528-6.084
	c10.456-1.938,20.583-5.152,30.894-7.251c10.932-2.226,22.404-2.169,33.551-3.555c10.473-1.302,20.727-2.7,31.188-3.993
	c5.158-0.638,10.403,0,15.563-0.007c5.019-0.007,9.438-1,14.486-1c5.116,0,10.087,0.327,15.012,1.682
	c4.217,1.159,7.671,4.037,11.751,5.318"/>
</svg>
